<?xml version="1.0" encoding="UTF-8" standalone="no"?>
<svg width="21px" height="34px" viewBox="0 0 21 34" version="1.1" xmlns="http://www.w3.org/2000/svg">
    <!-- Generator: Sketch 47.1 (45422) - http://www.bohemiancoding.com/sketch -->
    <title>hand-color-mobile</title>
    <desc>Created with Sketch.</desc>
    <defs></defs>
    <g id="Page-1" stroke="none" stroke-width="1" fill="none" fill-rule="evenodd">
        <g id="Desktop-HD-Contact-Us" transform="translate(-822.000000, -309.000000)">
            <g id="Content" transform="translate(150.000000, 146.000000)">
                <g id="ICons" transform="translate(331.000000, 158.000000)">
                    <g id="hand-color-mobile" transform="translate(342.366188, 6.250000)">
                        <path d="M3.42853943,3.17008824 L14.0822248,3.17008824 C14.5943671,3.17008824 15.0070825,4.71479412 15.0070825,6.62082353 L15.0070825,24.3753824 L3.42853943,22.5095 L3.42853943,3.17008824 Z" id="Fill-59" fill="#FFCD00" fill-rule="nonzero"></path>
                        <path d="M3.5384718,31.0755441 C1.88761018,31.0755441 0.546285117,29.7105441 0.546285117,28.0262794 L0.546285117,3.19054412 C0.546285117,1.50627941 1.88761018,0.141279412 3.5384718,0.141279412 L15.2220697,0.141279412 C16.8729313,0.141279412 18.2123804,1.50627941 18.2123804,3.19054412 L18.2123804,27.4374559 C18.069806,28.1639265 18.2836676,31.0659853 15.0082081,31.0659853 C11.7308726,31.0659853 6.53065849,29.0701029 6.53065849,23.9886324 C6.53065849,18.9071618 12.229883,19.7789265 12.229883,23.6980441 C12.229883,27.6171618 3.96619504,27.7261324 3.96619504,27.7261324" id="Stroke-130" stroke="#010001" stroke-width="2" stroke-linecap="round" stroke-linejoin="round"></path>
                    </g>
                </g>
            </g>
        </g>
    </g>
</svg>