<?xml version="1.0" encoding="UTF-8" standalone="no"?>
<svg width="31px" height="45px" viewBox="0 0 31 45" version="1.1" xmlns="http://www.w3.org/2000/svg">
    <!-- Generator: Sketch 47.1 (45422) - http://www.bohemiancoding.com/sketch -->
    <title>hand-color-tablet</title>
    <desc>Created with Sketch.</desc>
    <defs></defs>
    <g id="Page-1" stroke="none" stroke-width="1" fill="none" fill-rule="evenodd">
        <g id="Desktop-HD-Contact-Us" transform="translate(-719.000000, -303.000000)">
            <g id="Content" transform="translate(150.000000, 146.000000)">
                <g id="ICons" transform="translate(331.000000, 158.000000)">
                    <g id="hand-color-tablet" transform="translate(239.249347, 0.000000)">
                        <path d="M23.5250501,6.02418478 L6.01278512,6.02418478 C5.17234648,6.02418478 4.49136606,8.25923913 4.49136606,11.0154891 L4.49136606,36.6929348 L23.5250501,33.99375 L23.5250501,6.02418478 Z" id="Fill-60" fill="#FFCD00" fill-rule="nonzero"></path>
                        <path d="M3.92444517,41.5784783 C1.85336423,41.5784783 0.172486945,39.8741304 0.172486945,37.7741304 L0.172486945,4.7238587 C0.172486945,2.6238587 1.85336423,0.91951087 3.92444517,0.91951087 L24.0912206,0.91951087 C26.1623016,0.91951087 27.8431789,2.6238587 27.8431789,4.7238587 L27.8431789,36.6252174 C27.8431789,39.71625 26.4755901,42.3317391 20.3392624,42.3317391 C16.7430104,42.3317391 10.5691632,40.5094565 10.5691632,34.9608152 C10.5691632,29.4121739 16.8218016,30.3632609 16.8218016,34.6431522 C16.8218016,38.9230435 7.75519452,39.0428804 7.75519452,39.0428804" id="Stroke-132" stroke="#010001" stroke-width="2" stroke-linecap="round" stroke-linejoin="round"></path>
                    </g>
                </g>
            </g>
        </g>
    </g>
</svg>