<?xml version="1.0" encoding="UTF-8" standalone="no"?>
<svg width="47px" height="47px" viewBox="0 0 47 47" version="1.1" xmlns="http://www.w3.org/2000/svg">
    <!-- Generator: Sketch 47.1 (45422) - http://www.bohemiancoding.com/sketch -->
    <title>hand-color-desktop</title>
    <desc>Created with Sketch.</desc>
    <defs></defs>
    <g id="Page-1" stroke="none" stroke-width="1" fill="none" fill-rule="evenodd">
        <g id="Desktop-HD-Contact-Us" transform="translate(-480.000000, -303.000000)">
            <g id="Content" transform="translate(150.000000, 146.000000)">
                <g id="ICons" transform="translate(331.000000, 158.000000)">
                    <g id="hand-color-desktop">
                        <path d="M40.8282466,27.1875 L7.12440587,27.1875 C5.50731188,27.1875 4.19600248,25.471875 4.19600248,23.353125 L4.19600248,3.631875 L40.8282466,4.670625 L40.8282466,27.1875 Z" id="Fill-58" fill="#FFCD00" fill-rule="nonzero"></path>
                        <path d="M44.6717526,33.33975 C44.6717526,35.156625 42.7376181,35.947875 39.9874328,36.03225 C38.3684628,36.081 34.0143153,36.08475 32.7592852,36.08475 C18.5130999,36.08475 16.2394132,41.1135 16.2394132,44.23725 L27.7297852,44.23725 C27.7297852,37.911 20.1639615,35.88975 9.22325131,35.88975 L3.6197017,35.88975 C1.40792232,35.88975 0.439917102,34.4685 0.439917102,32.711625 L0.439917102,30.840375 L38.6048362,30.840375 C45.4146403,30.840375 44.5835816,28.601625 44.5835816,23.231625 L44.5835816,5.805375 C44.5835816,1.991625 43.5236534,0.000375 39.4940503,0.000375 L6.50308159,0.000375 C0.991454961,0.000375 0.439917102,3.007875 0.439917102,7.0785 L0.439917102,25.93725" id="Stroke-126" stroke="#010001" stroke-width="2" stroke-linecap="round" stroke-linejoin="round"></path>
                    </g>
                </g>
            </g>
        </g>
    </g>
</svg>