<?xml version="1.0" encoding="UTF-8" standalone="no"?>
<svg width="47px" height="33px" viewBox="0 0 47 33" version="1.1" xmlns="http://www.w3.org/2000/svg">
    <!-- Generator: Sketch 47.1 (45422) - http://www.bohemiancoding.com/sketch -->
    <title>hand-color-laptop</title>
    <desc>Created with Sketch.</desc>
    <defs></defs>
    <g id="Page-1" stroke="none" stroke-width="1" fill="none" fill-rule="evenodd">
        <g id="Desktop-HD-Contact-Us" transform="translate(-600.000000, -310.000000)">
            <g id="Content" transform="translate(150.000000, 146.000000)">
                <g id="ICons" transform="translate(331.000000, 158.000000)">
                    <g id="hand-color-laptop" transform="translate(119.124674, 6.250000)">
                        <path d="M7.74028982,4.51807353 L36.3977467,4.79527941 C37.7409478,4.80866176 37.9416775,6.03410294 37.9266697,7.53483824 L37.7259399,21.1466029 L7.59583943,21.8023382 L7.74028982,4.51807353 Z" id="Fill-79" fill="#FFD731" fill-rule="nonzero"></path>
                        <path d="M44.9647805,26.6714118 C44.9647805,28.5239118 42.3534176,30.7052353 39.6069842,30.7912647 L4.05905601,30.6497941 C1.84727663,30.6497941 0.87927141,29.1968529 0.87927141,27.4093529 L0.87927141,25.5014118 L35.406667,25.5014118 C42.2164711,25.5014118 41.3872884,23.2149412 41.3872884,17.7434706 L41.3872884,6.85788235 C41.3872884,2.96935294 40.3254842,0.937147059 36.297757,0.937147059 L10.0603132,0.937147059 C4.54681057,0.937147059 3.99527272,4.00552941 3.99527272,8.15214706 L3.99527272,20.5002353" id="Stroke-128" stroke="#010001" stroke-width="2" stroke-linecap="round" stroke-linejoin="round"></path>
                    </g>
                </g>
            </g>
        </g>
    </g>
</svg>