<?xml version="1.0" encoding="UTF-8" standalone="no"?>
<svg width="60px" height="61px" viewBox="0 0 60 61" version="1.1" xmlns="http://www.w3.org/2000/svg">
    <!-- Generator: Sketch 47.1 (45422) - http://www.bohemiancoding.com/sketch -->
    <title>hand-color-phone</title>
    <desc>Created with Sketch.</desc>
    <defs></defs>
    <g id="Page-1" stroke="none" stroke-width="1" fill="none" fill-rule="evenodd">
        <g id="Desktop-HD-Contact-Us" transform="translate(-817.000000, -479.000000)">
            <g id="Content" transform="translate(150.000000, 146.000000)">
                <g id="User" transform="translate(0.000000, 228.000000)">
                    <g id="Group-2" transform="translate(570.000000, 84.000000)">
                        <g id="Group-3" transform="translate(98.000000, 2.000000)">
                            <g id="hand-color-phone" transform="translate(0.000000, 20.000000)">
                                <path d="M37.3888139,9.6062553 C42.9375149,2.05350353 48.7252756,-0.0741709207 54.7420303,9.86728944 C62.9908475,23.5001665 58.0813166,39.1400512 48.8460637,49.9705052 C40.7658465,59.4440742 21.6083586,62.5863341 10.6745238,57.7596652 C2.65470064,54.2184663 5.00755118,44.836013 8.44497773,41.4696577 C11.8824043,38.1082276 17.8010187,35.3649066 22.4337436,41.8267327 C27.2577163,48.5520555 22.484072,54.5927794 18.8176514,53.0388875 C13.8351444,50.9284512 15.9212547,42.4152908 25.0583673,43.9716453 C39.5604824,47.3724768 47.7614876,29.1961283 44.3240611,22.5299075 C39.2585123,24.4753506 29.9980952,19.6683824 37.3888139,9.6062553" id="Fill-42" fill="#FFCD00" fill-rule="nonzero"></path>
                                <path d="M32.1256561,6.44836057 C37.674357,-1.10439121 43.4621177,-3.23206566 49.4788724,6.7093947 C57.7276896,20.3422717 52.8181587,35.9821565 43.5829058,46.8126104 C35.5026886,56.2861794 16.3452007,59.4284394 5.41136591,54.6017705 C-2.60845726,51.0605716 -0.255606719,41.6781183 3.18181984,38.311763 C6.6192464,34.9503329 12.5378608,32.2070119 17.1705857,38.668838 C21.9945585,45.3941608 17.2209141,51.4348847 13.5544935,49.8809928 C8.57198652,47.7705564 10.6580968,39.2573961 19.7952094,40.8137505 C34.2973245,44.214582 42.4983297,26.0382335 39.0609032,19.3720128 C33.9953544,21.3174558 24.7349373,16.5104876 32.1256561,6.44836057 Z" id="Stroke-94" stroke="#010001" stroke-width="2" stroke-linecap="round" stroke-linejoin="round"></path>
                            </g>
                        </g>
                    </g>
                </g>
            </g>
        </g>
    </g>
</svg>